<svg xmlns="http://www.w3.org/2000/svg" width="1810" height="1962" viewBox="0 0 1810 1962">
  <defs>
    <style>
      .cls-1 {
        fill: #969696;
      }

      .cls-1, .cls-2 {
        fill-rule: evenodd;
      }

      .cls-2 {
        fill: #ccc;
      }
    </style>
  </defs>
  <path id="Ellipse_1_copy" data-name="Ellipse 1 copy" class="cls-1" d="M1761.19,1036.93c-6.87,103.23-15.59,187.6-50.9,259.79-34.05,71.79-94.69,131.39-176.54,175.82-81.39,44.53-184.01,73.89-291.37,87.93-107.68,14.67-220.1,14.01-328.407,13.22-110.468-2.97-209-21.63-303.359-54.17-93.923-32.7-183.662-79.29-266.577-141.79-82.477-62.31-158.129-140.53-213.792-232.28C75.027,1054.22,39.8,949.466,48.414,846.183c6.725-104.143,56.322-186.044,128.891-262.615,72.071-76.5,167.114-147.662,253.168-228.552,88.683-76.713,168.39-163.163,246.762-221.905,79.415-60,157.493-92.289,266.927-89.652C1050.05,46.173,1179.91,72.487,1302.15,116.8c122.18,45.25,236.74,108.5,310.79,206.734,78.01,94,115.5,222.993,133.89,351.623,18.21,129.086,17.32,257.813,14.36,361.775"/>
  <path id="Ellipse_3_copy" data-name="Ellipse 3 copy" class="cls-2" d="M1234.36,485.084c101.64,11.284,194.75,51.626,267.27,106.085,73.21,54.082,127.81,120.116,168.96,177.061,40.99,59.416,67.56,110.17,81.55,167.437,13.65,57.557,15.27,121.653-.96,214.343-12.86,87.8-50.25,200.05-95.58,304.5-45.73,105.13-97.06,203.14-145.57,278.15-49.39,75.64-96.58,127.91-157.05,155.73-60.5,28.51-136.79,32.87-244.71,29.21-103.23-4.78-227-21.7-324.327-52.64-98.845-31.15-169.712-78.15-208.737-144.17-39.926-66.03-53.141-148.16-60.631-248.15-6.786-99.9-8.893-219.82,1-362.94,10.959-137.837,38.381-275.333,79.915-367.791,41.54-94.752,93.325-147.823,152.62-179.741,59.605-31.831,126.5-47.625,207.822-62.9,80.48-14.061,177.48-26.076,278.43-14.185"/>
</svg>
