<svg xmlns="http://www.w3.org/2000/svg" width="1810" height="1962" viewBox="0 0 1810 1962">
  <defs>
    <style>
      .cls-1 {
        fill: #646464;
      }

      .cls-1, .cls-2 {
        fill-rule: evenodd;
      }

      .cls-2 {
        fill: #969696;
      }
    </style>
  </defs>
  <path class="cls-1" d="M997.476,238.207c120.784,13.409,231.424,61.35,317.6,126.067,87.01,64.269,151.89,142.741,200.79,210.412,48.71,70.607,80.28,130.922,96.91,198.975,16.22,68.4,18.15,144.574-1.15,254.719-15.28,104.34-59.71,237.73-113.57,361.85-54.35,124.94-115.35,241.41-172.99,330.54-58.69,89.9-114.78,152.01-186.63,185.07-71.9,33.87-162.561,39.06-290.805,34.71-122.675-5.68-269.761-25.78-385.421-62.55-117.464-37.02-201.679-92.87-248.055-171.32-47.447-78.47-63.151-176.08-72.052-294.9-8.064-118.72-10.568-261.22,1.186-431.31,13.023-163.794,45.611-327.189,94.968-437.063,49.365-112.6,110.9-175.667,181.368-213.6,70.832-37.826,150.331-56.6,246.968-74.746,95.64-16.71,210.908-30.988,330.879-16.857"/>
  <path class="cls-2" d="M850.41,226.287c95.885,1.559,178.28,9.958,242.4,25.366,65.41,16.642,112.55,40.294,167.73,100.942,52.36,57.339,112.73,151.649,168.18,264.934C1482.96,729.275,1532.28,860,1534.62,954.67c6.75,100.5-36.1,151.52-91.13,198.26-55.53,46.26-123.24,88.23-177.96,159.51-57.11,67.34-105.68,157.53-166.71,229.89-59.74,73.8-140.8,116.95-237.82,116.67-98.037.03-197.936-39.39-276.1-79.24-79.458-41.68-137.18-83.79-180.84-131.5-43.752-48.09-73.42-101.75-98.692-174.79-24.147-71.94-43.9-163.25-41.868-260.99C261.053,912.16,280.543,813.126,305.975,716c26.355-96.544,58.652-191.184,103.189-269.147,44.552-78.175,101.326-139.688,176.8-175.016,74.566-36.35,167.83-46.515,264.447-45.545"/>
</svg>
