<svg xmlns="http://www.w3.org/2000/svg" width="1810" height="1962" viewBox="0 0 1810 1962">
  <defs>
    <style>
      .cls-1 {
        fill: #969696;
        fill-rule: evenodd;
      }
    </style>
  </defs>
  <path class="cls-1" d="M1055.66,59.059c108.86,2.633,197.98,8.06,275.47,41.982,77.01,32.627,142.4,93.748,192.75,177.861,50.46,83.615,85.9,190.237,105.43,302.523,20.21,112.592,24.51,230.848,28.5,344.793,1.79,116.312-13.46,220.772-43.5,321.452-30.22,100.23-75.22,196.68-137.27,286.65-61.87,89.51-140.77,172.55-234.79,235.17-93.49,62.12-202.09,103.83-311.1,99.36-109.826-2.45-198.165-50.97-281.918-123.89-83.653-72.4-162.72-169.19-251.616-256.1C313,1399,218.538,1319.02,153.278,1239.2,86.649,1158.35,49.22,1077.67,47.131,962.462,45.28,850.977,67.184,713.235,108.354,582.71c42.16-130.509,103.586-253.8,203.612-336.04,95.4-86.219,229.387-131.382,363.85-156.439,134.95-24.887,270.371-29.668,379.844-31.172"/>
</svg>
