<svg xmlns="http://www.w3.org/2000/svg" width="1810" height="1962" viewBox="0 0 1810 1962">
  <defs>
    <style>
      .cls-1 {
        fill: #969696;
      }

      .cls-1, .cls-2 {
        fill-rule: evenodd;
      }

      .cls-2 {
        fill: #ccc;
      }
    </style>
  </defs>
  <path id="Ellipse_1_copy" data-name="Ellipse 1 copy" class="cls-1" d="M1795.43,1039.17c-7.13,107.36-16.21,195.1-52.93,270.18-35.41,74.66-98.47,136.65-183.6,182.85-84.65,46.32-191.37,76.85-303.03,91.44-111.98,15.26-228.89,14.58-341.538,13.76-114.887-3.09-217.365-22.49-315.494-56.34-97.679-34.01-191.008-82.46-277.24-147.46-85.776-64.81-164.453-146.16-222.343-241.58C41.828,1057.15,5.19,948.2,14.151,840.79,21.145,732.481,72.726,647.3,148.2,567.671,223.151,488.115,322,414.1,411.492,329.976,503.722,250.2,586.618,160.287,668.125,99.2c82.59-62.4,163.792-95.981,277.6-93.238C1055.86,8.779,1190.91,36.146,1318.04,82.23c127.07,47.06,246.21,112.836,323.22,215,81.13,97.764,120.12,231.912,139.25,365.688,18.93,134.25,18.01,268.126,14.92,376.249"/>
  <path id="Ellipse_3_copy" data-name="Ellipse 3 copy" class="cls-2" d="M1247.54,465.247c105.7,11.736,202.53,53.691,277.95,110.328,76.15,56.246,132.93,124.922,175.73,184.144,42.63,61.792,70.25,114.577,84.8,174.134,14.2,59.86,15.89,126.527-1,222.917-13.37,91.32-52.25,208.06-99.39,316.68-47.57,109.34-100.95,211.26-151.4,289.27-51.36,78.67-100.44,133.03-163.33,161.97-62.92,29.64-142.26,34.18-254.5,30.37-107.35-4.97-236.079-22.56-337.3-54.74-102.8-32.4-176.5-81.28-217.087-149.93-41.523-68.67-55.266-154.09-63.056-258.08-7.058-103.9-9.249-228.61,1.037-377.47,11.4-143.342,39.917-286.338,83.112-382.495,43.2-98.542,97.058-153.736,158.726-186.93,61.988-33.1,131.562-49.53,216.134-65.416,83.7-14.623,184.583-27.118,289.573-14.752"/>
</svg>
