<svg xmlns="http://www.w3.org/2000/svg" width="1810" height="1962" viewBox="0 0 1810 1962">
  <defs>
    <style>
      .cls-1 {
        fill: none;
        stroke: #5f5f5f;
        stroke-width: 41.667px;
        fill-rule: evenodd;
      }
    </style>
  </defs>
  <path class="cls-1" d="M750.916,163.947c399.684-144.68,825.954,86.5,627.184,415.871-33.53,57.923-44,115.2-43.33,170.806,2.59,54.5,16.33,107.335,75.48,130.83,403.84,161.746,404.16,355.286,241.35,645.316-22.07,40.69-62.58,86.87-111.3,131.31-48.14,43.78-104.49,85.82-144.56,102.89-232.4,100.94-402.249,123.7-650.148-25.22-42.573-27.47-100.455-43.75-178.056-41.54-74.98.69-169.679,19.86-225.32,28.22C-37.668,1782-26.788,1079.28,304.934,559,353.55,484.76,456.877,399.891,536.839,325.693c84.478-73.92,145.592-137.169,214.077-161.746"/>
</svg>
