<svg xmlns="http://www.w3.org/2000/svg" width="1810" height="1962" viewBox="0 0 1810 1962">
  <defs>
    <style>
      .cls-1 {
        fill: #969696;
        fill-rule: evenodd;
      }
    </style>
  </defs>
  <path class="cls-1" d="M1131.04,0c122.73,2.854,223.19,8.737,310.55,45.5,86.81,35.365,160.52,101.616,217.29,192.788,56.88,90.632,96.83,206.2,118.84,327.911,22.79,122.041,27.64,250.221,32.14,373.729,2.01,126.071-15.18,239.3-49.04,348.421a1090.349,1090.349,0,0,1-154.74,310.72c-69.75,97.02-158.7,187.02-264.69,254.9-105.39,67.34-227.82,112.54-350.707,107.69-123.809-2.65-223.394-55.24-317.81-134.28-94.3-78.47-183.438-183.39-283.651-277.59-95.392-97.4-201.88-184.1-275.449-270.61C38.661,1191.54-3.533,1104.09-5.888,979.214-7.975,858.373,16.719,709.072,63.131,567.593c47.528-141.462,116.774-275.1,229.535-364.241C400.206,109.9,551.257,60.945,702.839,33.784,854.97,6.809,1007.63,1.626,1131.04,0"/>
</svg>
