<svg xmlns="http://www.w3.org/2000/svg" width="1810" height="1962" viewBox="0 0 1810 1962">
  <defs>
    <style>
      .cls-1 {
        fill: #646464;
      }

      .cls-1, .cls-2 {
        fill-rule: evenodd;
      }

      .cls-2 {
        fill: #969696;
      }
    </style>
  </defs>
  <path class="cls-1" d="M1047.23,19.668c146.69,15.288,281.07,69.945,385.75,143.73,105.67,73.274,184.47,162.741,243.87,239.893,59.16,80.5,97.5,149.265,117.7,226.853,19.7,77.982,22.05,164.83-1.39,290.411-18.56,118.955-72.52,271.035-137.95,412.545-66.01,142.44-140.09,275.23-210.1,376.86-71.29,102.48-139.41,173.3-226.68,210.99-87.32,38.62-197.43,44.53-353.2,39.58-148.995-6.48-327.641-29.4-468.118-71.32C254.45,1847,152.166,1783.33,95.84,1693.88c-57.628-89.46-76.7-200.74-87.512-336.21-9.795-135.35-12.836-297.82,1.44-491.741,15.818-186.743,55.4-373.032,115.344-498.3C185.07,239.254,259.813,167.35,345.4,124.106c86.029-43.126,182.585-64.525,299.957-85.22,116.16-19.05,256.161-35.329,401.877-19.218"/>
  <path class="cls-2" d="M868.605,6.078C985.063,7.855,1085.13,17.431,1163.02,35c79.44,18.974,136.7,45.94,203.71,115.084,63.59,65.374,136.92,172.9,204.27,302.055,65.87,127.4,125.78,276.437,128.62,384.376,8.19,114.579-43.85,172.747-110.68,226.037-67.45,52.74-149.69,100.6-216.14,181.86-69.37,76.78-128.36,179.6-202.48,262.1-72.56,84.14-171.011,133.34-288.852,133.02-119.072.04-240.4-44.91-335.338-90.34-96.507-47.53-166.614-95.53-219.641-149.93-53.14-54.82-89.173-116.01-119.868-199.28-29.328-82.01-53.317-186.12-50.851-297.552-2.975-114.379,20.7-227.29,51.585-338.029,32.011-110.072,71.238-217.971,125.331-306.857C386.8,168.413,455.752,98.282,547.418,58,637.983,16.561,751.258,4.972,868.605,6.078"/>
</svg>
